<svg width="70" height="69" viewBox="0 0 70 69" fill="none" xmlns="http://www.w3.org/2000/svg">
<circle cx="35" cy="34.5" r="34.5" fill="#DBE8FF"/>
<path d="M44.4839 37.9V20.4221C44.0378 20.3016 43.6275 20.0753 43.2877 19.7622C42.9479 19.4492 42.6887 19.0587 42.5322 18.624H26.9478C26.7923 19.0586 26.5339 19.4491 26.1948 19.7622C25.8557 20.0753 25.4458 20.3017 25.0002 20.4221V45.2832C25.4458 45.4022 25.8559 45.6276 26.1951 45.9401C26.5343 46.2526 26.7926 46.6428 26.9478 47.0771H41.9716V46.039C41.5194 45.3602 41.224 44.5893 41.1069 43.7822C40.9897 42.9751 41.0537 42.152 41.2943 41.3727C41.5348 40.5934 41.9459 39.8774 42.4976 39.2768C43.0493 38.6761 43.7278 38.2058 44.4839 37.9ZM29.9251 22.2035H39.5548C39.7751 22.2035 39.9863 22.291 40.1421 22.4467C40.2978 22.6025 40.3853 22.8137 40.3853 23.034C40.3853 23.2543 40.2978 23.4655 40.1421 23.6213C39.9863 23.777 39.7751 23.8645 39.5548 23.8645H29.9251C29.7049 23.8645 29.4936 23.777 29.3379 23.6213C29.1821 23.4655 29.0946 23.2543 29.0946 23.034C29.0946 22.8137 29.1821 22.6025 29.3379 22.4467C29.4936 22.291 29.7049 22.2035 29.9251 22.2035ZM27.1596 27.1325H42.3204C42.5407 27.1325 42.7519 27.22 42.9077 27.3758C43.0634 27.5315 43.1509 27.7428 43.1509 27.963C43.1509 28.1833 43.0634 28.3945 42.9077 28.5503C42.7519 28.706 42.5407 28.7935 42.3204 28.7935H27.1596C26.9393 28.7935 26.728 28.706 26.5723 28.5503C26.4165 28.3945 26.3291 28.1833 26.3291 27.963C26.3291 27.7428 26.4165 27.5315 26.5723 27.3758C26.728 27.22 26.9393 27.1325 27.1596 27.1325ZM27.1596 32.0574H42.3204C42.5407 32.0574 42.7519 32.1449 42.9077 32.3007C43.0634 32.4564 43.1509 32.6677 43.1509 32.8879C43.1509 33.1082 43.0634 33.3194 42.9077 33.4752C42.7519 33.6309 42.5407 33.7184 42.3204 33.7184H27.1596C26.9393 33.7184 26.728 33.6309 26.5723 33.4752C26.4165 33.3194 26.3291 33.1082 26.3291 32.8879C26.3291 32.6677 26.4165 32.4564 26.5723 32.3007C26.728 32.1449 26.9393 32.0574 27.1596 32.0574ZM27.1596 36.9865H42.3204C42.5407 36.9865 42.7519 37.074 42.9077 37.2297C43.0634 37.3855 43.1509 37.5967 43.1509 37.817C43.1509 38.0372 43.0634 38.2485 42.9077 38.4042C42.7519 38.56 42.5407 38.6475 42.3204 38.6475H27.1596C26.9393 38.6475 26.728 38.56 26.5723 38.4042C26.4165 38.2485 26.3291 38.0372 26.3291 37.817C26.3291 37.5967 26.4165 37.3855 26.5723 37.2297C26.728 37.074 26.9393 36.9865 27.1596 36.9865ZM39.6462 43.5765H27.1596C26.9393 43.5765 26.728 43.489 26.5723 43.3333C26.4165 43.1775 26.3291 42.9663 26.3291 42.746C26.3291 42.5258 26.4165 42.3145 26.5723 42.1588C26.728 42.003 26.9393 41.9155 27.1596 41.9155H39.6462C39.8664 41.9155 40.0777 42.003 40.2334 42.1588C40.3892 42.3145 40.4767 42.5258 40.4767 42.746C40.4767 42.9663 40.3892 43.1775 40.2334 43.3333C40.0777 43.489 39.8664 43.5765 39.6462 43.5765Z" fill="#3383FA"/>
<path d="M25.4241 47.908C25.3986 47.6009 25.254 47.3161 25.0212 47.1143C24.7884 46.9126 24.4859 46.8099 24.1784 46.8283H23.3479V18.8735H24.1784C24.4859 18.892 24.7884 18.7893 25.0212 18.5875C25.254 18.3858 25.3986 18.1009 25.4241 17.7939V16.9634H44.0565V17.7939C44.083 18.1005 44.2279 18.3847 44.4605 18.5863C44.693 18.7878 44.995 18.8909 45.3022 18.8735H46.1328V37.5101C46.2698 37.5101 46.4068 37.5101 46.548 37.5101C47.0307 37.511 47.5112 37.5766 47.9765 37.7052V16H21.5V49.7019H41.9719V48.7385H25.4241V47.908Z" fill="#3383FA"/>
<path d="M46.556 46.8418C48.6797 46.8418 50.4013 45.1203 50.4013 42.9966C50.4013 40.8729 48.6797 39.1514 46.556 39.1514C44.4324 39.1514 42.7108 40.8729 42.7108 42.9966C42.7108 45.1203 44.4324 46.8418 46.556 46.8418Z" fill="#3383FA"/>
<path d="M43.6326 47.6543V53.1605L46.5394 51.4331L49.4461 53.1605V47.6543C48.5717 48.2103 47.5569 48.5056 46.5207 48.5056C45.4844 48.5056 44.4697 48.2103 43.5952 47.6543H43.6326Z" fill="#3383FA"/>
</svg>
