<svg width="70" height="69" viewBox="0 0 70 69" fill="none" xmlns="http://www.w3.org/2000/svg">
<circle cx="35" cy="34.5" r="34.5" fill="#DBE8FF"/>
<path d="M35.4162 15C36.0955 15 36.7124 15.2768 37.1596 15.7235C37.4786 16.043 37.7103 16.446 37.8178 16.8951C42.232 17.4744 46.1509 19.6313 48.9861 22.7805C51.8971 26.0146 53.6696 30.2952 53.6696 34.9878C53.6696 39.2262 52.2216 43.13 49.794 46.2299C47.3155 49.3947 43.8142 51.7214 39.7888 52.7096C39.4476 52.7935 39.1025 52.585 39.0186 52.2439C38.9347 51.9027 39.1432 51.5576 39.4843 51.4737C43.2298 50.5543 46.4875 48.3898 48.7921 45.4472C51.048 42.5668 52.3935 38.9353 52.3935 34.9878C52.3935 30.6212 50.7455 26.6396 48.0385 23.6326C45.4284 20.7336 41.8336 18.7385 37.7826 18.1748C37.664 18.5717 37.448 18.9269 37.1626 19.2128C36.7135 19.6615 36.0965 19.9383 35.4162 19.9383C34.7369 19.9383 34.1195 19.6615 33.6728 19.2153C33.2241 18.7656 32.9473 18.1487 32.9473 17.4694C32.9473 16.7881 33.2241 16.1696 33.6703 15.7235C34.1169 15.2768 34.7349 15 35.4162 15ZM32.8514 52.6654C28.4346 52.0856 24.5157 49.9277 21.681 46.7771C18.7715 43.544 17 39.2644 17 34.5733C17 30.3349 18.448 26.4311 20.8757 23.3311C23.3541 20.1664 26.8555 17.8397 30.8809 16.8514C31.222 16.7675 31.5672 16.976 31.6511 17.3172C31.735 17.6583 31.5265 18.0035 31.1853 18.0874C27.4398 19.0068 24.1821 21.1712 21.8775 24.1139C19.6216 26.9943 18.2761 30.6258 18.2761 34.5733C18.2761 38.9383 19.9231 42.919 22.6286 45.925C25.2387 48.8259 28.835 50.8225 32.887 51.3863C33.0056 50.9893 33.2216 50.6341 33.507 50.3483C33.9562 49.8996 34.5731 49.6228 35.2534 49.6228C35.9327 49.6228 36.5502 49.8996 36.9968 50.3457C37.4455 50.7954 37.7223 51.4124 37.7223 52.0917C37.7223 52.7709 37.4455 53.3884 36.9993 53.8351C36.5502 54.2837 35.9327 54.5605 35.2534 54.5605C34.5731 54.5605 33.9562 54.2837 33.5095 53.8376C33.191 53.519 32.9594 53.1156 32.8514 52.6654ZM25.199 43.333C26.5872 42.5467 27.9754 41.9217 29.363 41.4589C28.3065 39.3744 27.7437 37.2904 27.6764 35.2063H22.08C22.1779 38.2992 23.3345 41.1253 25.199 43.333ZM30.2131 41.1957C33.6271 40.2185 37.0425 40.2185 40.4565 41.1957C41.4734 39.1991 42.0165 37.2029 42.0838 35.2063H28.5858C28.6531 37.2029 29.1962 39.1991 30.2131 41.1957ZM41.3066 41.4594C42.6948 41.9222 44.0829 42.5472 45.4706 43.3335C47.3351 41.1253 48.4917 38.2992 48.5897 35.2063H42.9932C42.9259 37.2904 42.3632 39.3754 41.3066 41.4594ZM44.8873 43.9796C43.5569 43.239 42.228 42.6537 40.8976 42.2226C39.8089 44.1494 38.2971 46.0767 36.3628 48.0035C39.6154 47.7538 42.5395 46.3314 44.7125 44.1584L44.8873 43.9796ZM40.0405 41.9659C36.9034 41.1057 33.7663 41.1062 30.6291 41.9659C31.7435 43.9183 33.3116 45.8707 35.3348 47.8226C37.3581 45.8707 38.9261 43.9183 40.0405 41.9659ZM29.772 42.2221C28.4421 42.6532 27.1112 43.2395 25.7818 43.9796L25.9571 44.1584C28.1301 46.3314 31.0547 47.7543 34.3069 48.0035C32.3725 46.0767 30.8608 44.1489 29.772 42.2221ZM25.7813 25.5825C27.1112 26.323 28.4416 26.9089 29.7715 27.3399C30.8603 25.4127 32.372 23.4854 34.3069 21.5581C31.0542 21.8078 28.1301 23.2301 25.9571 25.4031L25.7813 25.5825ZM30.6286 27.5962C33.7658 28.4563 36.9034 28.4563 40.0405 27.5962C38.9261 25.6438 37.3581 23.6914 35.3348 21.739C33.3116 23.6914 31.743 25.6433 30.6286 27.5962ZM40.8981 27.3399C42.228 26.9089 43.5579 26.322 44.8878 25.582L44.7125 25.4031C42.5395 23.2301 39.6149 21.8073 36.3628 21.5581C38.2976 23.4854 39.8094 25.4127 40.8981 27.3399ZM45.4711 26.2286C44.0835 27.0149 42.6953 27.6399 41.3071 28.1026C42.3637 30.1867 42.9254 32.2707 42.9932 34.3552H48.5897C48.4922 31.2623 47.3356 28.4362 45.4711 26.2286ZM40.4565 28.3664C37.042 29.3436 33.6276 29.3436 30.2131 28.3669C29.1962 30.363 28.6536 32.3591 28.5858 34.3552H42.0838C42.016 32.3591 41.4734 30.3625 40.4565 28.3664ZM29.3625 28.1031C27.9749 27.6399 26.5867 27.0154 25.1985 26.2291C23.3345 28.4367 22.1774 31.2623 22.08 34.3552H27.6764C27.7443 32.2712 28.306 30.1872 29.3625 28.1031Z" fill="#3383FA"/>
</svg>
