<svg width="69" height="69" viewBox="0 0 69 69" fill="none" xmlns="http://www.w3.org/2000/svg">
<circle cx="34.5" cy="34.5" r="34.5" fill="#DBE8FF"/>
<path d="M34.6467 40.0225C33.1265 40.0225 31.8896 41.2593 31.8896 42.7795V46.6393H37.4037V42.7795C37.4037 41.2593 36.1669 40.0225 34.6467 40.0225Z" fill="#3383FA"/>
<path d="M28.5812 36.7152H40.7121V31.2012H28.5812V36.7152ZM35.7495 32.8554H39.0579V35.061H35.7495V32.8554ZM30.2354 32.8554H33.5438V35.061H30.2354V32.8554Z" fill="#3383FA"/>
<path d="M28.5812 46.6389H30.7868V42.7791C30.7868 40.6512 32.5182 38.9192 34.6466 38.9192C36.7751 38.9192 38.5065 40.6512 38.5065 42.7791V46.6389H40.7121V37.8164H28.5812V46.6389Z" fill="#3383FA"/>
<path d="M44.0206 22.3779H25.2728V23.4807H44.0206V22.3779Z" fill="#3383FA"/>
<path d="M27.4784 24.583H26.3756V46.6393H27.4784V24.583Z" fill="#3383FA"/>
<path d="M34.6467 15.7958L41.3 21.2751H43.0353L35.0002 14.6582H34.2933L26.2582 21.2751H27.9935L34.6467 15.7958Z" fill="#3383FA"/>
<path d="M29.7277 21.2752H39.5659L34.6468 17.2246L29.7277 21.2752Z" fill="#3383FA"/>
<path d="M25.2728 30.0977H18.6559V31.2005H25.2728V30.0977Z" fill="#3383FA"/>
<path d="M18.6559 46.6393H25.2728V32.3027H18.6559V46.6393ZM20.3101 33.957H23.6185V36.1626H20.3101V33.957ZM20.3101 38.3682H23.6185V40.5738H20.3101V38.3682ZM20.3101 42.7795H23.6185V44.9851H20.3101V42.7795Z" fill="#3383FA"/>
<path d="M44.0205 46.6393H50.6374V32.3027H44.0205V46.6393ZM45.6747 33.957H48.9832V36.1626H45.6747V33.957ZM45.6747 38.3682H48.9832V40.5738H45.6747V38.3682ZM45.6747 42.7795H48.9832V44.9851H45.6747V42.7795Z" fill="#3383FA"/>
<path d="M50.6374 30.0977H44.0205V31.2005H50.6374V30.0977Z" fill="#3383FA"/>
<path d="M42.9178 24.583H41.8149V46.6393H42.9178V24.583Z" fill="#3383FA"/>
<path d="M28.5812 30.0971H40.7121V24.583H28.5812V30.0971ZM35.7495 26.2372H39.0579V28.4429H35.7495V26.2372ZM30.2354 26.2372H33.5438V28.4429H30.2354V26.2372Z" fill="#3383FA"/>
</svg>
