<svg width="70" height="69" viewBox="0 0 70 69" fill="none" xmlns="http://www.w3.org/2000/svg">
<circle cx="35" cy="34.5" r="34.5" fill="#DBE8FF"/>
<path d="M49.7524 27.4587C49.7004 27.7968 49.5519 28.1128 49.3248 28.3687C49.0977 28.6247 48.8017 28.8097 48.4721 28.9015L28.6349 34.6281C28.2156 34.7502 27.781 34.812 27.3442 34.8115C26.5501 34.8116 25.7684 34.6132 25.0705 34.2343C24.3725 33.8554 23.7803 33.308 23.3477 32.642L21.109 29.1818C21.0564 29.0995 21.0218 29.007 21.0075 28.9104C20.9932 28.8138 20.9995 28.7153 21.026 28.6213C21.0503 28.5286 21.0936 28.442 21.1532 28.367C21.2128 28.2919 21.2873 28.23 21.372 28.1853L24.6626 26.5382C24.7748 26.4824 24.9 26.458 25.0249 26.4678C25.1499 26.4775 25.2698 26.521 25.3719 26.5936L27.7941 28.2995L30.929 27.5486L27.5588 23.0504C27.4881 22.956 27.4428 22.845 27.427 22.7282C27.4113 22.6113 27.4257 22.4923 27.4688 22.3826C27.5119 22.2723 27.5826 22.175 27.6741 22.0999C27.7656 22.0248 27.8748 21.9744 27.9913 21.9535L33.3892 21.0123C33.4993 20.9913 33.6129 20.9973 33.7202 21.0298C33.8275 21.0624 33.9252 21.1205 34.0051 21.1992L38.6521 25.7493L44.1296 24.4137C44.8374 24.2459 45.5726 24.2282 46.2877 24.3617C47.0029 24.4952 47.6821 24.7769 48.2818 25.1888L49.0015 25.6836C49.283 25.8769 49.5034 26.1468 49.6364 26.4614C49.7695 26.7759 49.8097 27.122 49.7524 27.4587ZM42.4375 38.379L42.3856 38.5174C42.0154 39.4759 41.6625 40.3824 41.9289 40.8288C42.0881 41.0918 42.5863 41.4482 44.0742 41.6385C45.8285 41.8634 46.7282 42.1748 46.7212 43.2267C46.8725 43.2867 47.0288 43.333 47.1884 43.3651C47.2887 43.3859 47.3821 43.3962 47.4825 43.4101C46.4536 41.0472 44.7597 39.0347 42.6071 37.6177C42.5903 37.8787 42.5331 38.1355 42.4375 38.379ZM35.23 42.6488C35.659 42.5 35.7248 42.1886 35.7317 41.1886C35.7317 40.4309 35.7317 39.5762 36.3926 39.0156C36.704 38.7423 35.4618 37.1645 34.6418 36.116C34.4895 35.9222 34.3303 35.7216 34.1712 35.5139C30.9043 35.8212 27.8693 37.3351 25.6587 39.7601C23.4481 42.185 22.2208 45.3467 22.2163 48.628C22.2163 48.8116 22.2892 48.9876 22.4189 49.1174C22.5487 49.2471 22.7248 49.3201 22.9083 49.3201H31.8113C32.2404 46.6419 33.6141 43.2025 35.23 42.6488ZM47.9392 44.8495C47.5897 44.8464 47.2415 44.8046 46.9012 44.7249C46.0915 44.545 45.3475 44.2474 45.351 43.3201C44.8866 43.1617 44.4042 43.0618 43.915 43.0225C42.2299 42.8045 41.2265 42.3305 40.7594 41.5485C40.1469 40.5104 40.614 39.3098 41.1054 38.026L41.1573 37.8911C41.2784 37.5202 41.2549 37.1173 41.0915 36.7631C39.4685 35.9817 37.7014 35.5446 35.9013 35.4793C37.4272 37.4274 38.5691 38.9741 37.3061 40.071C37.1296 40.2232 37.1262 40.763 37.1227 41.2094C37.1227 42.1125 37.1054 43.4793 35.6867 43.9775C34.9013 44.2474 33.6556 46.9083 33.2196 49.3408H47.87C48.0536 49.3408 48.2296 49.2679 48.3594 49.1381C48.4891 49.0083 48.5621 48.8323 48.5621 48.6488C48.5639 47.3594 48.375 46.0767 48.0015 44.8426L47.9392 44.8495Z" fill="#3383FA"/>
</svg>
