<svg width="70" height="69" viewBox="0 0 70 69" fill="none" xmlns="http://www.w3.org/2000/svg">
<circle cx="35" cy="34.5" r="34.5" fill="#DBE8FF"/>
<path fill-rule="evenodd" clip-rule="evenodd" d="M28.7959 42.7617H40.5939C40.5939 41.5206 40.5371 40.6466 41.1054 39.4685C41.4427 38.7697 41.9412 38.1515 42.5911 37.6348C48.5187 32.9203 49.0433 24.0903 43.6714 18.7179C38.7141 13.7607 30.6761 13.7607 25.7189 18.7179C20.3465 24.0903 20.8711 32.9203 26.7992 37.6348C28.099 38.6686 28.7964 40.1137 28.7964 41.7726L28.7959 42.7617ZM32.3695 53.1583C32.7879 54.9538 35.038 55.6484 36.3802 54.3058C36.6909 53.995 36.9173 53.5995 37.0203 53.1583C36.7952 53.1882 36.566 53.2035 36.3331 53.2035H33.0567C32.8237 53.2035 32.5945 53.1882 32.3695 53.1583ZM36.0368 49.772C35.7717 49.772 35.5565 49.5572 35.5565 49.2917C35.5565 49.0261 35.7713 48.8114 36.0368 48.8114H40.5119C40.5655 48.543 40.5934 48.2658 40.5934 47.9821V43.7213H28.7954V46.1834H33.1671C33.4322 46.1834 33.6474 46.3982 33.6474 46.6637C33.6474 46.9293 33.4326 47.144 33.1671 47.144H28.7954V47.9826C28.7954 50.325 30.7138 52.2434 33.0562 52.2434H36.3326C38.0153 52.2434 39.508 51.2478 40.1965 49.772H36.0368ZM29.4784 25.9528C29.4071 27.0206 29.4071 28.1195 29.4784 29.1873C28.8383 28.6572 28.2643 28.1135 27.7654 27.5694C28.283 27.0057 28.8672 26.4592 29.4784 25.9528ZM38.1593 21.5681C38.389 22.299 38.5706 23.0794 38.703 23.8634C37.8132 23.2676 36.86 22.7169 35.8989 22.2445C36.6792 21.9543 37.4377 21.7284 38.1593 21.5681ZM42.25 26.8361C41.5522 26.0879 40.7229 25.343 39.7842 24.6326C39.6459 23.5271 39.4241 22.4262 39.1069 21.3915C41.0146 21.1102 42.8836 21.3086 43.5465 22.457C44.2071 23.6016 43.4454 25.3267 42.2505 26.8356L42.25 26.8361ZM39.91 29.1873C39.9813 28.1195 39.9813 27.0192 39.91 25.951C40.5501 26.4811 41.1245 27.0248 41.6235 27.5689C41.1245 28.113 40.5501 28.6572 39.91 29.1873ZM34.6951 32.4022C33.243 31.757 31.7947 30.9217 30.5093 29.9872C30.3426 28.4056 30.3426 26.7336 30.5093 25.152C31.1942 24.6535 31.7695 24.2892 32.5386 23.835V23.8359C33.2603 23.4194 33.9828 23.0528 34.6947 22.736C36.1468 23.3817 37.5928 24.2165 38.8786 25.1515C39.0449 26.7327 39.0449 28.4065 38.8786 29.9877C37.5928 30.9231 36.1482 31.7565 34.6951 32.4022ZM31.2291 33.5706C31.0073 32.8662 30.8238 32.0962 30.6854 31.2753C31.5776 31.8726 32.5256 32.4213 33.489 32.8951C32.7091 33.1849 31.9503 33.4104 31.2291 33.5706ZM34.6923 33.4453C35.7196 33.879 36.7827 34.2368 37.8378 34.4795C36.0922 38.8866 33.2957 38.8857 31.5501 34.4791C32.5475 34.2489 33.6078 33.9033 34.6923 33.4453ZM38.7025 31.2753C38.5637 32.0957 38.3806 32.8658 38.1588 33.5702C37.4116 33.4038 36.6443 33.1704 35.8994 32.8937C36.8605 32.4209 37.8127 31.8712 38.7025 31.2753ZM30.6854 23.862C30.8243 23.0416 31.0073 22.2716 31.2291 21.5676C31.9503 21.7279 32.7091 21.9534 33.489 22.2431C33.0134 22.477 32.5358 22.7314 32.0593 23.0067V23.0076C31.5836 23.2825 31.1247 23.5676 30.6854 23.862ZM27.1379 26.8356C24.1931 23.1176 25.5889 20.7002 30.2815 21.3915C29.981 22.3713 29.75 23.4628 29.6042 24.6312C28.7148 25.3034 27.8753 26.0437 27.1379 26.8356ZM37.611 17.3921C37.9948 17.776 37.9948 18.3988 37.611 18.7827C36.9937 19.4 35.9325 18.9611 35.9325 18.0876C35.9325 17.2141 36.9932 16.7744 37.611 17.3921ZM37.5215 19.9343C37.6324 20.164 37.7377 20.4058 37.8383 20.6592C36.84 20.8893 35.7787 21.235 34.6933 21.6934C33.6083 21.2355 32.548 20.8893 31.5501 20.6597C32.2969 18.7748 33.5631 17.0315 35.099 17.3958C34.519 18.9178 35.9721 20.4426 37.5211 19.9348L37.5215 19.9343ZM24.4219 30.1312C24.5626 29.6066 25.1025 29.2954 25.6271 29.4361C26.4526 29.6574 26.6371 30.7792 25.8637 31.239C25.1365 31.6713 24.1904 30.9958 24.4219 30.1312ZM26.6687 28.939C26.8122 28.7284 26.9688 28.5155 27.1383 28.3022C27.8362 29.0508 28.6654 29.7957 29.6046 30.5057C29.7509 31.6746 29.982 32.7665 30.2825 33.7467C28.3612 34.03 26.522 33.8315 25.8418 32.6799H25.8428C25.7738 32.5602 25.7207 32.4348 25.6816 32.3039C27.286 32.0431 27.8851 30.0301 26.6687 28.9395V28.939ZM42.0497 35.1844C41.8056 35.2496 41.5373 35.2226 41.3029 35.0879V35.087C40.5473 34.6505 40.6941 33.511 41.5401 33.2841C42.3889 33.0568 43.0816 33.9731 42.6484 34.7264H42.6474C42.5114 34.9612 42.2929 35.1192 42.0497 35.1844ZM39.8932 33.8357C39.6389 33.8166 39.3761 33.7873 39.1064 33.7472C39.4069 32.767 39.6379 31.675 39.7842 30.5062C40.7229 29.7957 41.5522 29.0513 42.25 28.3026C43.4445 29.8106 44.2062 31.5357 43.547 32.6799H43.5461C43.4771 32.7987 43.3951 32.9082 43.301 33.0074C42.8175 32.4139 42.0302 32.16 41.2922 32.358C40.585 32.5476 40.0446 33.1173 39.8932 33.8357ZM43.4762 35.2063C42.9372 36.1394 41.7353 36.4534 40.8236 35.9153V35.9163C40.3782 35.6596 40.0735 35.2533 39.9356 34.7977C39.5685 34.7744 39.1865 34.7306 38.7919 34.6673C36.7193 40.1137 32.6691 40.1142 30.5969 34.6673C28.2541 35.046 25.9378 34.7567 25.0145 33.1593H25.0135C24.8426 32.8639 24.7326 32.5401 24.68 32.2015C23.1575 31.621 22.9875 29.5106 24.4028 28.7037C24.8477 28.4475 25.3513 28.3865 25.8139 28.4946C26.0175 28.1885 26.2462 27.8796 26.4987 27.5698C22.8184 23.0547 24.8491 19.543 30.5974 20.4719C31.442 18.2521 32.8512 16.3891 34.6951 16.3891C35.0301 16.3891 35.372 16.4576 35.6902 16.5806C36.9541 15.5505 38.8604 16.452 38.8604 18.0876C38.8604 18.6015 38.6606 19.0692 38.3345 19.4167C38.4975 19.7461 38.6508 20.0988 38.7929 20.4719C44.5412 19.543 46.5719 23.0547 42.8915 27.5694C44.3786 29.3937 45.3061 31.5819 44.3753 33.1588H44.3762C44.2053 33.4551 43.9803 33.7118 43.7143 33.927C43.7813 34.3449 43.7101 34.8098 43.4767 35.2053H43.4776L43.4762 35.2063ZM35.3893 26.8734C35.7731 27.2572 35.7731 27.8801 35.3893 28.264C34.772 28.8812 33.7108 28.4424 33.7108 27.5689C33.7108 26.6954 34.7715 26.2556 35.3893 26.8734ZM34.6942 25.6253C36.4193 25.6253 37.29 27.7212 36.068 28.9427C34.8465 30.1642 32.7506 29.294 32.7506 27.5689C32.7506 26.496 33.6208 25.6258 34.6937 25.6258L34.6942 25.6253Z" fill="#3383FA"/>
</svg>
