<svg width="70" height="69" viewBox="0 0 70 69" fill="none" xmlns="http://www.w3.org/2000/svg">
<circle cx="35" cy="34.5" r="34.5" fill="#DBE8FF"/>
<path d="M17.7625 28.2383L34.6956 17.8584L51.837 28.2383L34.7997 38.7445L17.7625 28.2383Z" fill="#3383FA"/>
<path d="M18.1346 29.0223C20.0466 27.8499 21.9512 26.6775 23.8632 25.5142C26.9061 23.6474 29.9491 21.7807 32.9845 19.9229C33.6764 19.4991 34.3758 19.0662 35.0677 18.6423C34.8147 18.6423 34.5692 18.6423 34.3163 18.6423C36.2432 19.8147 38.1775 20.978 40.1045 22.1504C43.1771 24.0172 46.2572 25.8749 49.3299 27.7417C50.0367 28.1655 50.7435 28.5984 51.4503 29.0223C51.4503 28.4992 51.4503 27.9852 51.4503 27.4621C49.5233 28.6525 47.5964 29.8429 45.6695 31.0243C42.6191 32.9001 39.5762 34.7849 36.5259 36.6607C35.8191 37.0935 35.1198 37.5264 34.413 37.9683C34.6659 37.9683 34.9114 37.9683 35.1644 37.9683C33.2375 36.7779 31.3105 35.5875 29.3836 34.4061C26.3333 32.5303 23.2904 30.6455 20.24 28.7697C19.5332 28.3369 18.8339 27.904 18.1271 27.4621C17.279 26.9391 16.5201 28.4902 17.3757 29.0223C19.3249 30.2217 21.2742 31.4211 23.2234 32.6295C26.2812 34.5143 29.3315 36.3991 32.3893 38.2839C33.0589 38.6988 33.7211 39.1316 34.3981 39.5194C34.7924 39.7449 35.0677 39.5916 35.4025 39.3841C35.7447 39.1767 36.0869 38.9603 36.4292 38.7529C39.353 36.9492 42.2695 35.1456 45.1933 33.351C47.4848 31.9351 49.806 30.5824 52.0752 29.1034C52.1124 29.0764 52.157 29.0583 52.1942 29.0313C52.6778 28.7337 52.6853 27.7687 52.1942 27.4711C50.2673 26.2988 48.333 25.1354 46.406 23.9631C43.3334 22.0963 40.2533 20.2385 37.1806 18.3718C36.4813 17.9479 35.7968 17.506 35.09 17.1092C34.7254 16.9018 34.4353 17.0191 34.1154 17.2175C33.788 17.4159 33.4532 17.6233 33.1259 17.8217C30.2243 19.5983 27.3228 21.3748 24.4212 23.1604C22.1149 24.5763 19.7788 25.929 17.4947 27.408C17.4575 27.4351 17.4129 27.4531 17.3757 27.4801C16.5275 27.9852 17.2864 29.5453 18.1346 29.0223Z" fill="#3383FA"/>
<path d="M45.2079 31.8735C45.2079 35.9046 45.2079 39.9267 45.2079 43.9578C45.2079 44.535 45.2079 45.1122 45.2079 45.6984C45.2079 46.8617 46.6959 46.8617 46.6959 45.6984C46.6959 41.6672 46.6959 37.6451 46.6959 33.614C46.6959 33.0368 46.6959 32.4597 46.6959 31.8735C46.6959 30.7101 45.2079 30.7101 45.2079 31.8735Z" fill="#3383FA"/>
<path d="M42.0983 51.6856L46.0042 45.5352L49.9176 51.6856H42.0983Z" fill="#3383FA"/>
<path d="M42.7378 52.1101C43.8761 50.3245 45.0144 48.5299 46.1527 46.7443C46.3164 46.4827 46.4875 46.2212 46.6512 45.9597C46.2197 45.9597 45.7956 45.9597 45.3641 45.9597C46.5024 47.7453 47.6407 49.5399 48.779 51.3255C48.9427 51.587 49.1138 51.8486 49.2774 52.1101C49.4932 51.6592 49.709 51.2083 49.9173 50.7574C47.6407 50.7574 45.3566 50.7574 43.08 50.7574C42.7527 50.7574 42.4253 50.7574 42.098 50.7574C41.1382 50.7574 41.1382 52.561 42.098 52.561C44.3746 52.561 46.6586 52.561 48.9352 52.561C49.2626 52.561 49.5899 52.561 49.9173 52.561C50.4232 52.561 50.9142 51.7674 50.5571 51.2083C49.4188 49.4227 48.2805 47.6281 47.1422 45.8425C46.9785 45.5809 46.8074 45.3194 46.6437 45.0579C46.2792 44.4807 45.7212 44.4807 45.3566 45.0579C44.2183 46.8435 43.08 48.6381 41.9417 50.4237C41.7781 50.6852 41.6069 50.9467 41.4433 51.2083C41.1978 51.5961 41.3912 52.2183 41.7111 52.4438C42.1054 52.7053 42.4923 52.4979 42.7378 52.1101Z" fill="#3383FA"/>
<path d="M27.6722 39.5641C29.7182 40.8808 31.7641 42.1884 33.8101 43.505C34.1449 43.7215 34.5987 44.1183 34.993 43.983C35.2832 43.8838 35.5734 43.6584 35.8337 43.496C37.0762 42.7656 38.3112 42.0261 39.5537 41.2956C40.5283 40.7184 41.5029 40.1413 42.4775 39.5641C42.8421 39.3477 42.9388 38.7254 42.7454 38.3286C42.5296 37.8867 42.0907 37.7875 41.7261 38.004C39.5909 39.2665 37.4556 40.5381 35.3278 41.8006C35.0302 41.981 34.7252 42.1613 34.4276 42.3327C34.6806 42.3327 34.9261 42.3327 35.179 42.3327C33.2075 41.0701 31.2434 39.8076 29.2718 38.545C28.9891 38.3647 28.7138 38.1843 28.4311 38.004C27.5755 37.4629 26.8241 39.023 27.6722 39.5641Z" fill="#3383FA"/>
</svg>
