<svg width="70" height="69" viewBox="0 0 70 69" fill="none" xmlns="http://www.w3.org/2000/svg">
<circle cx="35" cy="34.5" r="34.5" fill="#DBE8FF"/>
<path d="M13.4384 23.213C18.057 23.6559 22.6654 23.9512 27.2735 24.1093C27.2735 24.1304 27.263 24.162 27.263 24.1832C27.2314 24.3941 27.1893 24.7104 27.1893 24.7631C27.1048 24.837 26.799 24.9424 26.5987 25.0162C25.987 25.2271 25.2278 25.5013 24.8693 26.25C24.5108 26.9882 24.7638 27.7474 24.9747 28.3485C25.038 28.5489 25.154 28.8758 25.1644 28.9179C25.1223 29.0128 24.9008 29.2343 24.7533 29.3925C24.3209 29.8248 23.7199 30.4259 23.7199 31.2695C23.7199 32.1131 24.3209 32.7142 24.7533 33.1465C24.9008 33.3047 25.1223 33.5261 25.1434 33.5578C25.154 33.6738 25.038 33.9901 24.9747 34.1905C24.7638 34.7916 24.5108 35.5508 24.8693 36.2889C24.9852 36.521 25.1329 36.7108 25.3016 36.8479C21.3261 37.0271 17.3928 37.3119 13.4912 37.7126C11.9936 37.8707 10.7915 36.5526 11.0868 35.0763C11.6984 32.1026 11.709 29.034 11.0446 25.8282C10.7493 24.3835 11.962 23.0759 13.4384 23.213Z" fill="#3383FA"/>
<path d="M59.4025 35.0007C59.7716 36.4876 58.4957 37.8585 56.9772 37.7108C53.0438 37.3312 49.1316 37.057 45.2509 36.8777C45.4302 36.7196 45.5885 36.5298 45.7044 36.2872C46.0629 35.5491 45.8099 34.7898 45.599 34.1887C45.5357 33.9884 45.4302 33.672 45.4197 33.6193C45.4618 33.5244 45.6833 33.303 45.831 33.1448C46.2632 32.7124 46.8538 32.1114 46.8538 31.2678C46.8538 30.4241 46.2632 29.8231 45.831 29.3907C45.6833 29.2325 45.4618 29.0111 45.4303 28.9794C45.4303 28.874 45.5357 28.5471 45.599 28.3468C45.8099 27.7457 46.0629 26.9865 45.7044 26.2483C45.3459 25.4996 44.5867 25.2254 43.9856 25.0145C43.7853 24.9407 43.4794 24.8352 43.4372 24.8142C43.3844 24.7192 43.3423 24.3923 43.3212 24.1814C43.3212 24.1603 43.3212 24.1393 43.3107 24.1181C47.8978 23.9599 52.4956 23.6647 57.0825 23.2324C58.6222 23.0847 59.8138 24.4872 59.4446 25.9847C58.6643 29.1271 58.6854 32.1219 59.4025 35.0007Z" fill="#3383FA"/>
<path d="M35.074 41.7605L30.4973 49.1738C30.3076 49.4796 29.8541 49.4163 29.7486 49.0789L28.8733 46.2317C28.8207 46.0419 28.6202 45.9153 28.4094 45.947L25.52 46.4637C25.172 46.527 24.9083 46.1368 25.0982 45.8415L28.3988 40.4951C28.6941 40.6428 29.0316 40.7166 29.4322 40.7166C29.6642 40.7166 29.9067 40.6955 30.1599 40.6639C30.3287 40.6533 30.4973 40.6322 30.6661 40.6322C30.7082 40.6322 30.7609 40.6322 30.7609 40.6322C30.8559 40.7166 31.014 40.9591 31.109 41.1279C31.4464 41.6446 31.8999 42.3511 32.7119 42.5304C32.8383 42.562 32.965 42.5831 33.1019 42.5831C33.7347 42.5831 34.262 42.2562 34.7259 41.9609C34.8209 41.8976 34.9579 41.8238 35.074 41.7605Z" fill="#3383FA"/>
<path d="M45.0568 46.8728L42.1675 46.3561C41.9672 46.3244 41.7667 46.4404 41.7035 46.6408L40.8282 49.488C40.7227 49.8254 40.2693 49.8887 40.0901 49.5829L35.2181 41.6846C35.2393 41.6741 35.2604 41.6635 35.2709 41.6635C35.3765 41.6846 35.6716 41.8639 35.851 41.9799C36.3149 42.2646 36.8421 42.5915 37.4855 42.5915C37.6119 42.5915 37.7386 42.5704 37.865 42.5493C38.6875 42.3595 39.1409 41.653 39.4679 41.1363C39.584 40.957 39.7526 40.6828 39.7737 40.6512C39.7843 40.6512 39.8159 40.6406 39.9214 40.6406C40.0796 40.6406 40.2482 40.6617 40.4275 40.6723C40.67 40.7039 40.9231 40.725 41.1552 40.725C41.4715 40.725 41.7456 40.6828 41.9882 40.5879L45.4785 46.2506C45.6684 46.5459 45.4153 46.9255 45.0568 46.8728Z" fill="#3383FA"/>
<path d="M35.2686 37.3239C38.6054 37.3239 41.3104 34.6189 41.3104 31.2821C41.3104 27.9453 38.6054 25.2402 35.2686 25.2402C31.9318 25.2402 29.2268 27.9453 29.2268 31.2821C29.2268 34.6189 31.9318 37.3239 35.2686 37.3239Z" fill="#3383FA"/>
<path d="M44.4024 33.3463C44.5639 32.6356 45.8025 32.0254 45.8025 31.2659C45.8025 30.5064 44.5639 29.8963 44.4025 29.1858C44.2357 28.4521 45.0829 27.3662 44.7637 26.7043C44.439 26.0315 43.0586 26.0191 42.5973 25.4412C42.1336 24.8604 42.4267 23.5123 41.846 23.0485C41.268 22.587 40.0194 23.1709 39.3466 22.8463C38.6845 22.5269 38.365 21.1835 37.6313 21.0168C36.9208 20.8551 36.0516 21.9232 35.292 21.9232C34.5327 21.9232 33.6635 20.8551 32.9529 21.0166C32.2195 21.1834 31.8998 22.5268 31.2379 22.8461C30.5651 23.1706 29.3165 22.5866 28.7386 23.048C28.1579 23.5118 28.4509 24.86 27.9873 25.4406C27.5256 26.0185 26.1452 26.031 25.8206 26.7038C25.5013 27.3658 26.3485 28.4518 26.1816 29.1854C26.0201 29.8961 24.7815 30.5063 24.7815 31.2659C24.7815 32.0254 26.0201 32.6354 26.1815 33.346C26.3483 34.0796 25.5011 35.1655 25.8203 35.8274C26.1449 36.5001 27.5254 36.5127 27.9867 37.0905C28.4505 37.6713 28.1574 39.0195 28.738 39.4832C29.316 39.9447 30.5646 39.3609 31.2376 39.6854C31.8995 40.0049 32.219 41.3482 32.9527 41.515C33.6634 41.6766 34.5324 40.6086 35.292 40.6086C36.0515 40.6086 36.9205 41.6766 37.6311 41.5151C38.3647 41.3483 38.6843 40.005 39.3462 39.6857C40.0189 39.3611 41.2675 39.9451 41.8455 39.4837C42.4262 39.02 42.1331 37.6718 42.5967 37.0911C43.0583 36.5132 44.4388 36.5007 44.7634 35.8279C45.0828 35.166 44.2357 34.08 44.4024 33.3463ZM35.2679 38.3861C31.3547 38.3861 28.1716 35.203 28.1716 31.2898C28.1716 27.3765 31.3547 24.1934 35.2679 24.1934C39.1812 24.1934 42.3643 27.3765 42.3643 31.2898C42.3643 35.203 39.1812 38.3861 35.2679 38.3861Z" fill="#3383FA"/>
</svg>
