<svg width="70" height="69" viewBox="0 0 70 69" fill="none" xmlns="http://www.w3.org/2000/svg">
<circle cx="35" cy="34.5" r="34.5" fill="#DBE8FF"/>
<path d="M22.5826 23.4818C25.5014 22.619 31.5881 22.689 33.8465 25.595L33.8505 43.4834C31.7429 40.7393 25.4604 40.3864 22.5849 41.9878L22.5826 23.4819V23.4818ZM21.9005 26.1306L21.956 43.4263C27.0872 41.9763 31.4454 42.5219 33.58 44.6706C28.5064 43.9953 23.4527 45.1896 20.0638 47L20 26.9963C20.6344 26.8891 21.2677 26.602 21.9005 26.1306ZM47.0995 26.1306L47.044 43.4263C41.9128 41.9763 37.5546 42.5219 35.42 44.6706C40.4936 43.9953 45.5473 45.1896 48.9362 47L49 26.9963C48.3656 26.8891 47.7323 26.602 47.0995 26.1306ZM46.4174 23.4818C43.4986 22.619 37.4119 22.689 35.1535 25.595L35.1495 43.4834C37.2571 40.7393 43.5396 40.3864 46.4151 41.9878L46.4174 23.4819V23.4818Z" fill="#3383FA"/>
</svg>
